HIERARCHY
ROOT Model
{
	OFFSET 0 0 0
	CHANNELS 6 Xposition Yposition Zposition Zrotation Xrotation Yrotation
	JOINT Model1
	{
		OFFSET 0 -2.25479 2.99384
		CHANNELS 3 Zrotation Xrotation Yrotation
		JOINT Model2
		{
			OFFSET 12.111 0 0
			CHANNELS 3 Zrotation Xrotation Yrotation
			JOINT Model3
			{
				OFFSET 11.5502 0 0
				CHANNELS 3 Zrotation Xrotation Yrotation
				JOINT Model4
				{
					OFFSET 11.781 0 0
					CHANNELS 3 Zrotation Xrotation Yrotation
					JOINT Model5
					{
						OFFSET 20.0601 0 0
						CHANNELS 3 Zrotation Xrotation Yrotation
						JOINT Model6
						{
							OFFSET 11.1962 0 0
							CHANNELS 3 Zrotation Xrotation Yrotation
							End Site
							{
								OFFSET 0 0 0
							}
						}
					}
					JOINT Model7
					{
						OFFSET 10.8223 0.417534 3.51114
						CHANNELS 3 Zrotation Xrotation Yrotation
						JOINT Model8
						{
							OFFSET -6.07944 0 0
							CHANNELS 3 Zrotation Xrotation Yrotation
							JOINT Model9
							{
								OFFSET -0.277405 10.39 -0.051239
								CHANNELS 3 Zrotation Xrotation Yrotation
								JOINT Model10
								{
									OFFSET -3.43909 -0.282043 1.86679
									CHANNELS 3 Zrotation Xrotation Yrotation
									JOINT Model11
									{
										OFFSET 13.0269 0 0
										CHANNELS 3 Zrotation Xrotation Yrotation
										JOINT Model12
										{
											OFFSET 10.8866 0 0
											CHANNELS 3 Zrotation Xrotation Yrotation
											JOINT Model13
											{
												OFFSET 16.7317 0 0
												CHANNELS 3 Zrotation Xrotation Yrotation
												JOINT Model14
												{
													OFFSET 11.8292 0 0
													CHANNELS 3 Zrotation Xrotation Yrotation
													JOINT Model15
													{
														OFFSET 4.82751 -3.73566 -0.836517
														CHANNELS 3 Zrotation Xrotation Yrotation
														JOINT Model16
														{
															OFFSET 3.75311 -0.0582886 -0.0186462
															CHANNELS 3 Zrotation Xrotation Yrotation
															JOINT Model17
															{
																OFFSET 2.88689 0.0192337 0.014801
																CHANNELS 3 Zrotation Xrotation Yrotation
																End Site
																{
																	OFFSET 0 0 0
																}
															}
														}
													}
													JOINT Model18
													{
														OFFSET 9.72197 -3.06458 0.23877
														CHANNELS 3 Zrotation Xrotation Yrotation
														JOINT Model19
														{
															OFFSET 4.61131 0 0
															CHANNELS 3 Zrotation Xrotation Yrotation
															JOINT Model20
															{
																OFFSET 2.8969 -7.62939e-006 0
																CHANNELS 3 Zrotation Xrotation Yrotation
																End Site
																{
																	OFFSET 0 0 0
																}
															}
														}
													}
													JOINT Model21
													{
														OFFSET 9.54431 -0.745064 0.588928
														CHANNELS 3 Zrotation Xrotation Yrotation
														JOINT Model22
														{
															OFFSET 5.33978 0 0
															CHANNELS 3 Zrotation Xrotation Yrotation
															JOINT Model23
															{
																OFFSET 3.03619 7.62939e-006 0
																CHANNELS 3 Zrotation Xrotation Yrotation
																End Site
																{
																	OFFSET 0 0 0
																}
															}
														}
													}
													JOINT Model24
													{
														OFFSET 9.47758 1.51286 0.485107
														CHANNELS 3 Zrotation Xrotation Yrotation
														JOINT Model25
														{
															OFFSET 4.96136 7.62939e-006 0
															CHANNELS 3 Zrotation Xrotation Yrotation
															JOINT Model26
															{
																OFFSET 2.51965 0 0
																CHANNELS 3 Zrotation Xrotation Yrotation
																End Site
																{
																	OFFSET 0 0 0
																}
															}
														}
													}
													JOINT Model27
													{
														OFFSET 9.34247 3.34117 -0.239288
														CHANNELS 3 Zrotation Xrotation Yrotation
														JOINT Model28
														{
															OFFSET 3.28259 2.28882e-005 0
															CHANNELS 3 Zrotation Xrotation Yrotation
															JOINT Model29
															{
																OFFSET 2.1292 0 0
																CHANNELS 3 Zrotation Xrotation Yrotation
																End Site
																{
																	OFFSET 0 0 0
																}
															}
														}
													}
												}
											}
										}
									}
								}
							}
						}
					}
					JOINT Model30
					{
						OFFSET 10.8223 0.4179 -3.51108
						CHANNELS 3 Zrotation Xrotation Yrotation
						JOINT Model31
						{
							OFFSET 6.07944 0 0
							CHANNELS 3 Zrotation Xrotation Yrotation
							JOINT Model32
							{
								OFFSET 0.277405 -10.39 0.051239
								CHANNELS 3 Zrotation Xrotation Yrotation
								JOINT Model33
								{
									OFFSET 3.43909 0.282043 -1.86679
									CHANNELS 3 Zrotation Xrotation Yrotation
									JOINT Model34
									{
										OFFSET -13.0269 0 0
										CHANNELS 3 Zrotation Xrotation Yrotation
										JOINT Model35
										{
											OFFSET -10.8866 0 0
											CHANNELS 3 Zrotation Xrotation Yrotation
											JOINT Model36
											{
												OFFSET -16.7317 0 0
												CHANNELS 3 Zrotation Xrotation Yrotation
												JOINT Model37
												{
													OFFSET -11.8292 0 0
													CHANNELS 3 Zrotation Xrotation Yrotation
													JOINT Model38
													{
														OFFSET -4.82751 3.73566 0.836517
														CHANNELS 3 Zrotation Xrotation Yrotation
														JOINT Model39
														{
															OFFSET -3.75311 0.0582886 0.0186462
															CHANNELS 3 Zrotation Xrotation Yrotation
															JOINT Model40
															{
																OFFSET -2.88687 -0.0192337 -0.014801
																CHANNELS 3 Zrotation Xrotation Yrotation
																End Site
																{
																	OFFSET 0 0 0
																}
															}
														}
													}
													JOINT Model41
													{
														OFFSET -9.72198 3.06459 -0.23877
														CHANNELS 3 Zrotation Xrotation Yrotation
														JOINT Model42
														{
															OFFSET -4.6113 0 0
															CHANNELS 3 Zrotation Xrotation Yrotation
															JOINT Model43
															{
																OFFSET -2.89691 0 0
																CHANNELS 3 Zrotation Xrotation Yrotation
																End Site
																{
																	OFFSET 0 0 0
																}
															}
														}
													}
													JOINT Model44
													{
														OFFSET -9.54431 0.745064 -0.588928
														CHANNELS 3 Zrotation Xrotation Yrotation
														JOINT Model45
														{
															OFFSET -5.33978 0 0
															CHANNELS 3 Zrotation Xrotation Yrotation
															JOINT Model46
															{
																OFFSET -3.03619 -1.52588e-005 0
																CHANNELS 3 Zrotation Xrotation Yrotation
																End Site
																{
																	OFFSET 0 0 0
																}
															}
														}
													}
													JOINT Model47
													{
														OFFSET -9.4776 -1.51286 -0.485107
														CHANNELS 3 Zrotation Xrotation Yrotation
														JOINT Model48
														{
															OFFSET -4.96136 -1.52588e-005 0
															CHANNELS 3 Zrotation Xrotation Yrotation
															JOINT Model49
															{
																OFFSET -2.51965 0 0
																CHANNELS 3 Zrotation Xrotation Yrotation
																End Site
																{
																	OFFSET 0 0 0
																}
															}
														}
													}
													JOINT Model50
													{
														OFFSET -9.34247 -3.34118 0.239288
														CHANNELS 3 Zrotation Xrotation Yrotation
														JOINT Model51
														{
															OFFSET -3.28259 -2.28882e-005 0
															CHANNELS 3 Zrotation Xrotation Yrotation
															JOINT Model52
															{
																OFFSET -2.12921 0 0
																CHANNELS 3 Zrotation Xrotation Yrotation
																End Site
																{
																	OFFSET 0 0 0
																}
															}
														}
													}
												}
											}
										}
									}
								}
							}
						}
					}
				}
			}
		}
	}
	JOINT Model53
	{
		OFFSET 4.38025 -2.14632 -1.11517
		CHANNELS 3 Zrotation Xrotation Yrotation
		JOINT Model54
		{
			OFFSET 0 0 4.94998
			CHANNELS 3 Zrotation Xrotation Yrotation
			JOINT Model55
			{
				OFFSET 18.5642 0 0
				CHANNELS 3 Zrotation Xrotation Yrotation
				JOINT Model56
				{
					OFFSET 21.2884 0 0
					CHANNELS 3 Zrotation Xrotation Yrotation
					JOINT Model57
					{
						OFFSET 30.261 0 0
						CHANNELS 3 Zrotation Xrotation Yrotation
						JOINT Model58
						{
							OFFSET 11.7259 0 0
							CHANNELS 3 Zrotation Xrotation Yrotation
							JOINT Model59
							{
								OFFSET 10.682 0 0
								CHANNELS 3 Zrotation Xrotation Yrotation
								End Site
								{
									OFFSET 0 0 0
								}
							}
						}
					}
				}
			}
		}
	}
	JOINT Model60
	{
		OFFSET -4.38025 -2.14632 -1.11517
		CHANNELS 3 Zrotation Xrotation Yrotation
		JOINT Model61
		{
			OFFSET 0 0 -4.94998
			CHANNELS 3 Zrotation Xrotation Yrotation
			JOINT Model62
			{
				OFFSET -18.5642 0 0
				CHANNELS 3 Zrotation Xrotation Yrotation
				JOINT Model63
				{
					OFFSET -21.2884 0 0
					CHANNELS 3 Zrotation Xrotation Yrotation
					JOINT Model64
					{
						OFFSET -30.261 0 0
						CHANNELS 3 Zrotation Xrotation Yrotation
						JOINT Model65
						{
							OFFSET -11.7259 0 0
							CHANNELS 3 Zrotation Xrotation Yrotation
							JOINT Model66
							{
								OFFSET -10.682 0 0
								CHANNELS 3 Zrotation Xrotation Yrotation
								End Site
								{
									OFFSET 0 0 0
								}
							}
						}
					}
				}
			}
		}
	}
}
MOTION
Frames: 4
Frame Time: 0.033333
-413.756 151.687 -452.644 31.0419 -33.7331 47.434 -180 4.29621e-031 -90 6.07164 0.241717 0.812223 12.1395 0.567525 1.59435 12.1395 0.567953 1.59426 -17.8881 3.06863 0.0865225 -13.9417 3.72436 -3.65998 120.092 75.5343 58.4939 -4.56325 22.158 8.76405 -167.277 84.4999 48.8109 133.693 0.466676 4.4063 -1.55164e-007 20.3186 3.17918e-005 -6.81853 -6.84693 -17.6586 1.59203e-008 -10.8565 -1.65802e-007 -4.54564 -0.0924761 2.3297 -72.0648 39.0385 39.3397 33.3638 2.10362 14.835 0.588947 0.308273 6.35287 -99.6409 81.413 100.35 -0.0181409 2.77701e-005 -0.117315 -0.124139 0.00241111 -0.799296 -79.8382 79.5773 80.5374 -0.000225766 -0.000220932 2.23137e-005 -0.000956212 0.000122882 -2.71592e-005 -66.7416 80.4058 67.2171 -0.000437118 1.59368e-005 -2.72018e-005 -0.000136584 -0.000109303 -5.44804e-005 -6.42159 81.2158 8.01779 -0.000218538 1.68967e-005 0.000212265 0.000901622 -0.000184817 -0.000218397 -59.9282 75.5373 58.5147 -1.59697 26.781 9.09993 -167.277 84.4999 48.8109 147.034 -12.7188 -2.3093 6.38299e-006 1.13646 2.91013e-005 -37.077 7.73565 0.370134 -5.03477e-006 11.0327 2.13234e-006 7.52006 -0.750051 -11.3757 -72.0648 39.0385 39.3397 33.3638 2.10361 14.835 0.588946 0.308273 6.35287 -99.6409 81.413 100.35 -0.0181409 3.0009e-005 -0.117315 -0.124139 0.00241103 -0.799296 -79.8382 79.5773 80.5374 -0.000260646 -0.00021864 2.34243e-005 -0.000956226 0.000122897 -2.75186e-005 -66.7416 80.4058 67.2171 -0.000437136 1.48102e-005 -2.74696e-005 -0.000136609 -0.000109379 -5.48431e-005 -6.42159 81.2158 8.01779 -0.000218584 1.95356e-005 0.000212153 0.000901559 -0.000191304 -0.000218761 0.000811311 0.56661 89.91 -91.644 0.431552 -8.21048 4.94153e-007 -2.64761 -2.26953e-009 111.949 7.39675 -0.00774294 -3.16774e-008 10.9828 -3.36498e-008 -47.8199 -2.13184 1.54759 -74.2764 28.2709 14.6316 -180 -0.566579 -90.09 -119.49 -2.92915 3.71411 -8.38447e-007 -1.09151 -2.8609e-008 77.565 -2.32959 -0.00790521 3.90865e-007 -3.61441 1.35407e-008 -58.5514 6.02124 -4.50986 -35.4947 -1.96504e-006 4.83662e-007 
-410.966 151.526 -449.008 31.6725 -33.3305 47.3584 -180 4.29621e-031 -90 5.98854 0.204461 0.73298 11.9741 0.483824 1.44065 11.9741 0.484251 1.44056 -16.9979 2.77392 -0.351743 -14.3919 3.19574 -3.15831 120.092 75.5343 58.4939 -5.17194 21.8181 8.87837 -167.277 84.4999 48.8109 134.468 0.0322458 3.50113 3.01849e-007 19.5423 3.1636e-005 -8.54944 -5.98648 -17.449 1.97883e-008 -9.53822 -1.65117e-007 -4.78001 -0.0806508 1.93215 -72.0648 39.0385 39.3397 33.3638 2.10362 14.835 0.588947 0.308273 6.35287 -99.6409 81.413 100.35 -0.0181409 2.77701e-005 -0.117315 -0.124139 0.00241111 -0.799296 -79.8382 79.5773 80.5374 -0.000225766 -0.000220932 2.23137e-005 -0.000956212 0.000122882 -2.71592e-005 -66.7416 80.4058 67.2171 -0.000437118 1.59368e-005 -2.72018e-005 -0.000136584 -0.000109303 -5.44804e-005 -6.42159 81.2158 8.01779 -0.000218538 1.68967e-005 0.000212265 0.000901622 -0.000184817 -0.000218397 -59.9282 75.5373 58.5147 -2.12918 26.7958 9.32635 -167.277 84.4999 48.8109 147.021 -12.6933 -2.23786 6.36492e-006 1.17202 2.91017e-005 -37.3995 7.1578 0.372427 -5.00188e-006 10.1628 2.12629e-006 7.47016 -0.787266 -12.0155 -72.0648 39.0385 39.3397 33.3638 2.10361 14.835 0.588946 0.308273 6.35287 -99.6409 81.413 100.35 -0.0181409 3.0009e-005 -0.117315 -0.124139 0.00241103 -0.799296 -79.8382 79.5773 80.5374 -0.000260646 -0.00021864 2.34243e-005 -0.000956226 0.000122897 -2.75186e-005 -66.7416 80.4058 67.2171 -0.000437136 1.48102e-005 -2.74696e-005 -0.000136609 -0.000109379 -5.48431e-005 -6.42159 81.2158 8.01779 -0.000218584 1.95356e-005 0.000212153 0.000901559 -0.000191304 -0.000218761 0.000811311 0.56661 89.91 -95.1749 1.30147 -9.64263 4.94162e-007 -2.42751 -2.26914e-009 114.768 6.30725 -0.00757834 -3.26484e-008 9.35127 -3.34784e-008 -57.6826 -1.10754 0.187087 -59.8566 17.0319 4.25688 -180 -0.566579 -90.09 -118.737 -2.5751 3.67864 -8.38221e-007 -0.638268 -2.86056e-008 82.6789 -2.54679 -0.00803098 3.90943e-007 -3.94221 1.35459e-008 -62.532 6.26979 -4.51686 -35.4947 -1.67218e-006 1.59672e-007 
-408.279 151.312 -445.461 32.6164 -32.939 47.695 -180 4.29621e-031 -90 5.95742 0.139886 0.66693 11.9129 0.347788 1.31575 11.9129 0.348216 1.31566 -16.1449 2.25826 -0.165242 -14.8955 2.74625 -2.97905 120.092 75.5343 58.4939 -5.33269 21.565 8.85115 -167.277 84.4999 48.8109 135.327 -1.31377 2.85912 1.50421e-006 17.4647 3.12544e-005 -10.5254 -3.77188 -17.3252 2.97089e-008 -6.11331 -1.63766e-007 -5.08729 -0.0703823 1.58423 -72.0648 39.0385 39.3397 33.3638 2.10362 14.835 0.588947 0.308273 6.35287 -99.6409 81.413 100.35 -0.0181409 2.77701e-005 -0.117315 -0.124139 0.00241111 -0.799296 -79.8382 79.5773 80.5374 -0.000225766 -0.000220932 2.23137e-005 -0.000956212 0.000122882 -2.71592e-005 -66.7416 80.4058 67.2171 -0.000437118 1.59368e-005 -2.72018e-005 -0.000136584 -0.000109303 -5.44804e-005 -6.42159 81.2158 8.01779 -0.000218538 1.68967e-005 0.000212265 0.000901622 -0.000184817 -0.000218397 -59.9282 75.5373 58.5147 -2.59564 27.0085 9.59015 -167.277 84.4999 48.8109 147.338 -12.7295 -2.37156 6.36889e-006 1.1642 2.91016e-005 -38.2591 6.9755 0.379559 -4.99127e-006 9.88126 2.12445e-006 7.48415 -0.806574 -12.2851 -72.0648 39.0385 39.3397 33.3638 2.10361 14.835 0.588946 0.308273 6.35287 -99.6409 81.413 100.35 -0.0181409 3.0009e-005 -0.117315 -0.124139 0.00241103 -0.799296 -79.8382 79.5773 80.5374 -0.000260646 -0.00021864 2.34243e-005 -0.000956226 0.000122897 -2.75186e-005 -66.7416 80.4058 67.2171 -0.000437136 1.48102e-005 -2.74696e-005 -0.000136609 -0.000109379 -5.48431e-005 -6.42159 81.2158 8.01779 -0.000218584 1.95356e-005 0.000212153 0.000901559 -0.000191304 -0.000218761 0.000811311 0.56661 89.91 -100.033 1.88824 -10.7677 4.94145e-007 -2.83877 -2.26989e-009 115.551 4.80369 -0.00752568 -3.39756e-008 7.09672 -3.32885e-008 -63.0199 0.638099 -1.12612 -51.8732 7.30766 0.352919 -180 -0.566579 -90.09 -117.474 -2.07195 3.88381 -8.37801e-007 0.20388 -2.8604e-008 87.2993 -2.9425 -0.00805895 3.91084e-007 -4.53667 1.35563e-008 -66.3616 4.5419 -3.40386 -35.4947 -6.12251e-007 -5.44086e-007 
-405.622 151.027 -442.032 33.8813 -32.7262 48.3808 -180 4.29621e-031 -90 6.02012 0.0881805 0.630246 12.039 0.24153 1.24777 12.039 0.241957 1.24768 -15.5936 1.66961 0.176138 -15.2029 2.2601 -2.75558 120.092 75.5343 58.4939 -5.07591 21.3223 8.67033 -167.277 84.4999 48.8109 135.597 -1.90538 2.06123 2.07248e-006 16.4656 3.10886e-005 -11.9114 -2.20155 -16.8737 3.66875e-008 -3.67604 -1.6317e-007 -5.37642 -0.0600365 1.27862 -72.0648 39.0385 39.3397 33.3638 2.10362 14.835 0.588947 0.308273 6.35287 -99.6409 81.413 100.35 -0.0181409 2.77701e-005 -0.117315 -0.124139 0.00241111 -0.799296 -79.8382 79.5773 80.5374 -0.000225766 -0.000220932 2.23137e-005 -0.000956212 0.000122882 -2.71592e-005 -66.7416 80.4058 67.2171 -0.000437118 1.59368e-005 -2.72018e-005 -0.000136584 -0.000109303 -5.44804e-005 -6.42159 81.2158 8.01779 -0.000218538 1.68967e-005 0.000212265 0.000901622 -0.000184817 -0.000218397 -59.9282 75.5373 58.5147 -2.17657 26.9014 9.37996 -167.277 84.4999 48.8109 147.44 -12.6978 -2.2531 6.33843e-006 1.22416 2.91022e-005 -39.248 6.85781 0.387725 -4.9843e-006 9.69587 2.12326e-006 7.26829 -0.779073 -12.2201 -72.0648 39.0385 39.3397 33.3638 2.10361 14.835 0.588946 0.308273 6.35287 -99.6409 81.413 100.35 -0.0181409 3.0009e-005 -0.117315 -0.124139 0.00241103 -0.799296 -79.8382 79.5773 80.5374 -0.000260646 -0.00021864 2.34243e-005 -0.000956226 0.000122897 -2.75186e-005 -66.7416 80.4058 67.2171 -0.000437136 1.48102e-005 -2.74696e-005 -0.000136609 -0.000109379 -5.48431e-005 -6.42159 81.2158 8.01779 -0.000218584 1.95356e-005 0.000212153 0.000901559 -0.000191304 -0.000218761 0.000811311 0.56661 89.91 -105.425 2.15625 -11.627 4.94105e-007 -3.84693 -2.27222e-009 113.876 3.77459 -0.00762809 -3.48775e-008 5.55139 -3.31892e-008 -65.9196 1.659 -1.78363 -46.9725 2.90643 -0.466855 -180 -0.566579 -90.09 -115.887 -1.67321 4.07447 -8.37479e-007 0.847566 -2.86069e-008 91.6852 -3.3439 -0.00806432 3.91227e-007 -5.13881 1.35683e-008 -68.8563 3.07779 -2.58363 -36.9636 1.09388 -0.163784 
